<svg width="94" height="87" viewBox="0 0 94 87" fill="none" xmlns="http://www.w3.org/2000/svg">
<path d="M86.669 23.4243C82.5175 26.7102 64.6722 40.8234 60.8904 43.8164L47.3047 30.2385C52.3135 23.914 61.373 12.4674 68.1994 3.8459C71.0856 0.197596 76.1328 -0.0856316 79.4248 3.20264L93.9157 17.6902L86.669 23.4243Z" fill="#FFFFFF"/>
<path d="M67.7048 83.1585C64.4176 79.0085 50.2965 61.1703 47.3047 57.3899L60.888 43.8096C69.0038 50.2302 85.5501 63.3184 93.75 69.8062C93.8461 69.8806 93.8461 70.0054 93.7596 70.0918L79.2663 84.5794C76.164 87.6805 71.0496 87.3828 68.3267 83.9433L67.7048 83.1585Z" fill="#FFFFFF"/>
<path d="M7.93806 64.2116C12.0896 60.9257 29.9349 46.8125 33.7167 43.8195L47.3024 57.3974C42.2576 63.7676 33.102 75.3341 26.2588 83.9796C23.5431 87.4095 18.4479 87.6975 15.3552 84.6037L0.691406 69.9457L7.93806 64.2116Z" fill="#FFFFFF"/>
<path d="M26.8997 4.46754C30.1869 8.61749 44.3056 26.4558 47.2999 30.2361L33.7166 43.8164C25.6007 37.3959 9.05444 24.3076 0.854532 17.8199C0.758486 17.7454 0.758487 17.6206 0.844928 17.5342L15.3382 3.04662C18.4405 -0.0544345 23.555 0.243193 26.2779 3.68268L26.8997 4.46754Z" fill="#FFFFFF"/>
</svg>
